# xmcd CD database file
#
# Track frame offsets:
#	150
#	20409
#	43379
#	70910
#	94511
#	119747
#	135482
#	154511
#	178890
#	204853
#
# Disc length: 3061 seconds
#
# Revision: 1
# Processed by: cddbd v1.5.2PL0 Copyright (c) Steve Scherf et al.
# Submitted via: CDex 1.83
#
DISCID=870bf30a
DTITLE=Boz Scaggs - But Beautiful
DYEAR=2003
DGENRE=Jazz
TTITLE0=What's New
TTITLE1=Never Let Me Go
TTITLE2=How Long Has This Been Going On
TTITLE3=Sophisticated Lady
TTITLE4=But Beautiful
TTITLE5=Bewitched, Bothered And Bewildered
TTITLE6=Easy Living
TTITLE7=I Should Care
TTITLE8=You Don't Know What Love Is
TTITLE9=For All We Know
EXTD=YEAR: 2003
EXTT0=
EXTT1=
EXTT2=
EXTT3=
EXTT4=
EXTT5=
EXTT6=
EXTT7=
EXTT8=
EXTT9=
PLAYORDER=
